<?xml version="1.0" encoding="UTF-8"?> <svg xmlns="http://www.w3.org/2000/svg" width="149" height="149" viewBox="0 0 149 149" fill="none"><g clip-path="url(#clip0_2895_14769)"><path d="M20.92 0H127.89C139.44 0 148.81 9.38 148.81 20.92V118.21H0V20.92C0 9.38 9.38 0 20.92 0Z" fill="white"></path><path d="M0 118.211H148.81V127.891C148.81 139.441 139.43 148.811 127.89 148.811H20.92C9.37 148.811 0 139.431 0 127.891V118.211Z" fill="#4285F4"></path><path d="M20.7031 130.21C20.5735 129.814 20.4028 129.458 20.1908 129.144C19.9828 128.826 19.7335 128.556 19.4431 128.332C19.1565 128.108 18.8308 127.937 18.4657 127.82C18.1007 127.702 17.7003 127.643 17.2646 127.643C16.5502 127.643 15.9006 127.827 15.3157 128.196C14.7309 128.565 14.2658 129.109 13.9203 129.827C13.5749 130.546 13.4022 131.427 13.4022 132.471C13.4022 133.515 13.5769 134.396 13.9262 135.115C14.2756 135.833 14.7486 136.376 15.3452 136.745C15.9418 137.114 16.613 137.299 17.3588 137.299C18.0496 137.299 18.658 137.152 19.184 136.857C19.7139 136.559 20.1261 136.139 20.4205 135.597C20.7188 135.052 20.8679 134.41 20.8679 133.672L21.3154 133.766H17.6885V132.471H22.281V133.766C22.281 134.759 22.069 135.623 21.6451 136.357C21.2251 137.091 20.6442 137.66 19.9023 138.064C19.1644 138.465 18.3166 138.665 17.3588 138.665C16.2912 138.665 15.353 138.414 14.5444 137.911C13.7398 137.409 13.1118 136.694 12.6604 135.768C12.2129 134.842 11.9891 133.743 11.9891 132.471C11.9891 131.517 12.1167 130.659 12.3719 129.898C12.6309 129.133 12.996 128.481 13.467 127.943C13.938 127.405 14.4954 126.993 15.1391 126.707C15.7828 126.42 16.4913 126.277 17.2646 126.277C17.9005 126.277 18.4932 126.373 19.0427 126.565C19.5962 126.754 20.0888 127.023 20.5205 127.372C20.9562 127.718 21.3193 128.132 21.6098 128.614C21.9003 129.093 22.1004 129.625 22.2103 130.21H20.7031ZM28.2674 138.688C27.451 138.688 26.7346 138.494 26.1184 138.106C25.506 137.717 25.0272 137.173 24.6817 136.475C24.3402 135.776 24.1695 134.959 24.1695 134.025C24.1695 133.083 24.3402 132.261 24.6817 131.558C25.0272 130.856 25.506 130.31 26.1184 129.921C26.7346 129.533 27.451 129.339 28.2674 129.339C29.0838 129.339 29.7982 129.533 30.4106 129.921C31.0268 130.31 31.5057 130.856 31.8472 131.558C32.1926 132.261 32.3653 133.083 32.3653 134.025C32.3653 134.959 32.1926 135.776 31.8472 136.475C31.5057 137.173 31.0268 137.717 30.4106 138.106C29.7982 138.494 29.0838 138.688 28.2674 138.688ZM28.2674 137.44C28.8876 137.44 29.3979 137.281 29.7982 136.963C30.1986 136.645 30.4949 136.227 30.6873 135.709C30.8796 135.191 30.9758 134.63 30.9758 134.025C30.9758 133.421 30.8796 132.858 30.6873 132.335C30.4949 131.813 30.1986 131.391 29.7982 131.07C29.3979 130.748 28.8876 130.587 28.2674 130.587C27.6472 130.587 27.1369 130.748 26.7366 131.07C26.3362 131.391 26.0399 131.813 25.8475 132.335C25.6552 132.858 25.559 133.421 25.559 134.025C25.559 134.63 25.6552 135.191 25.8475 135.709C26.0399 136.227 26.3362 136.645 26.7366 136.963C27.1369 137.281 27.6472 137.44 28.2674 137.44ZM38.1603 138.688C37.3439 138.688 36.6276 138.494 36.0113 138.106C35.399 137.717 34.9201 137.173 34.5747 136.475C34.2332 135.776 34.0625 134.959 34.0625 134.025C34.0625 133.083 34.2332 132.261 34.5747 131.558C34.9201 130.856 35.399 130.31 36.0113 129.921C36.6276 129.533 37.3439 129.339 38.1603 129.339C38.9768 129.339 39.6912 129.533 40.3035 129.921C40.9198 130.31 41.3986 130.856 41.7401 131.558C42.0855 132.261 42.2582 133.083 42.2582 134.025C42.2582 134.959 42.0855 135.776 41.7401 136.475C41.3986 137.173 40.9198 137.717 40.3035 138.106C39.6912 138.494 38.9768 138.688 38.1603 138.688ZM38.1603 137.44C38.7805 137.44 39.2908 137.281 39.6912 136.963C40.0915 136.645 40.3879 136.227 40.5802 135.709C40.7726 135.191 40.8687 134.63 40.8687 134.025C40.8687 133.421 40.7726 132.858 40.5802 132.335C40.3879 131.813 40.0915 131.391 39.6912 131.07C39.2908 130.748 38.7805 130.587 38.1603 130.587C37.5402 130.587 37.0299 130.748 36.6295 131.07C36.2292 131.391 35.9328 131.813 35.7405 132.335C35.5481 132.858 35.452 133.421 35.452 134.025C35.452 134.63 35.5481 135.191 35.7405 135.709C35.9328 136.227 36.2292 136.645 36.6295 136.963C37.0299 137.281 37.5402 137.44 38.1603 137.44ZM48.0297 142.08C47.3585 142.08 46.7815 141.993 46.2987 141.821C45.8159 141.652 45.4136 141.428 45.0917 141.15C44.7738 140.875 44.5206 140.58 44.3322 140.266L45.4391 139.489C45.5647 139.654 45.7237 139.842 45.916 140.054C46.1084 140.27 46.3714 140.457 46.705 140.614C47.0426 140.775 47.4841 140.855 48.0297 140.855C48.7598 140.855 49.3623 140.678 49.8373 140.325C50.3122 139.972 50.5497 139.418 50.5497 138.665V136.828H50.432C50.3299 136.993 50.1847 137.197 49.9963 137.44C49.8118 137.68 49.5449 137.894 49.1955 138.082C48.8501 138.266 48.383 138.359 47.7942 138.359C47.0642 138.359 46.4086 138.186 45.8277 137.841C45.2507 137.495 44.7934 136.993 44.4559 136.333C44.1222 135.674 43.9554 134.873 43.9554 133.931C43.9554 133.005 44.1183 132.198 44.4441 131.511C44.7699 130.82 45.2232 130.287 45.8042 129.91C46.3851 129.529 47.0563 129.339 47.8178 129.339C48.4066 129.339 48.8737 129.437 49.2191 129.633C49.5684 129.825 49.8353 130.045 50.0198 130.292C50.2082 130.536 50.3535 130.736 50.4555 130.893H50.5968V129.456H51.9392V138.759C51.9392 139.536 51.7626 140.168 51.4093 140.655C51.06 141.146 50.589 141.505 49.9963 141.732C49.4075 141.964 48.752 142.08 48.0297 142.08ZM47.9826 137.11C48.54 137.11 49.011 136.983 49.3957 136.728C49.7804 136.473 50.0728 136.106 50.273 135.627C50.4732 135.148 50.5733 134.575 50.5733 133.908C50.5733 133.256 50.4751 132.681 50.2789 132.182C50.0826 131.684 49.7922 131.293 49.4075 131.011C49.0228 130.728 48.5479 130.587 47.9826 130.587C47.3939 130.587 46.9032 130.736 46.5107 131.034C46.1221 131.333 45.8297 131.733 45.6334 132.235C45.4411 132.738 45.3449 133.295 45.3449 133.908C45.3449 134.536 45.443 135.091 45.6393 135.574C45.8395 136.053 46.1339 136.429 46.5225 136.704C46.915 136.975 47.4017 137.11 47.9826 137.11ZM55.8723 126.442V138.5H54.4828V126.442H55.8723ZM62.209 138.688C61.3376 138.688 60.5859 138.496 59.954 138.111C59.326 137.723 58.8412 137.181 58.4997 136.486C58.1621 135.788 57.9933 134.975 57.9933 134.049C57.9933 133.122 58.1621 132.306 58.4997 131.6C58.8412 130.889 59.3161 130.336 59.9245 129.939C60.5369 129.539 61.2513 129.339 62.0677 129.339C62.5387 129.339 63.0039 129.417 63.4631 129.574C63.9223 129.731 64.3404 129.986 64.7172 130.34C65.094 130.689 65.3943 131.152 65.618 131.729C65.8418 132.306 65.9536 133.017 65.9536 133.86V134.449H58.9825V133.248H64.5406C64.5406 132.738 64.4385 132.282 64.2344 131.882C64.0342 131.482 63.7477 131.166 63.3748 130.934C63.0058 130.703 62.5701 130.587 62.0677 130.587C61.5142 130.587 61.0354 130.724 60.6311 130.999C60.2307 131.27 59.9226 131.623 59.7067 132.059C59.4908 132.494 59.3829 132.962 59.3829 133.46V134.261C59.3829 134.944 59.5006 135.523 59.7361 135.998C59.9756 136.469 60.3072 136.828 60.7312 137.075C61.1551 137.319 61.6477 137.44 62.209 137.44C62.574 137.44 62.9038 137.389 63.1982 137.287C63.4965 137.181 63.7536 137.024 63.9694 136.816C64.1853 136.604 64.3522 136.341 64.4699 136.027L65.8123 136.404C65.671 136.859 65.4335 137.26 65.0999 137.605C64.7663 137.947 64.3541 138.213 63.8635 138.406C63.3728 138.594 62.8213 138.688 62.209 138.688ZM72.9189 138.5V126.442H76.9932C77.9353 126.442 78.7085 126.603 79.313 126.925C79.9175 127.243 80.365 127.68 80.6554 128.238C80.9459 128.795 81.0911 129.429 81.0911 130.139C81.0911 130.85 80.9459 131.48 80.6554 132.029C80.365 132.579 79.9195 133.011 79.3189 133.325C78.7183 133.635 77.951 133.79 77.0168 133.79H73.7196V132.471H76.9697C77.6134 132.471 78.1315 132.377 78.5241 132.188C78.9205 132 79.207 131.733 79.3837 131.388C79.5642 131.038 79.6545 130.622 79.6545 130.139C79.6545 129.657 79.5642 129.235 79.3837 128.873C79.2031 128.512 78.9146 128.234 78.5182 128.037C78.1217 127.837 77.5977 127.737 76.9461 127.737H74.3791V138.5H72.9189ZM78.5947 133.083L81.5621 138.5H79.8665L76.9461 133.083H78.5947ZM87.0304 138.688C86.159 138.688 85.4074 138.496 84.7754 138.111C84.1474 137.723 83.6626 137.181 83.3211 136.486C82.9836 135.788 82.8148 134.975 82.8148 134.049C82.8148 133.122 82.9836 132.306 83.3211 131.6C83.6626 130.889 84.1376 130.336 84.746 129.939C85.3583 129.539 86.0727 129.339 86.8891 129.339C87.3601 129.339 87.8253 129.417 88.2845 129.574C88.7438 129.731 89.1618 129.986 89.5386 130.34C89.9154 130.689 90.2157 131.152 90.4395 131.729C90.6632 132.306 90.7751 133.017 90.7751 133.86V134.449H83.8039V133.248H89.362C89.362 132.738 89.2599 132.282 89.0558 131.882C88.8556 131.482 88.5691 131.166 88.1962 130.934C87.8272 130.703 87.3915 130.587 86.8891 130.587C86.3357 130.587 85.8568 130.724 85.4525 130.999C85.0521 131.27 84.744 131.623 84.5281 132.059C84.3122 132.494 84.2043 132.962 84.2043 133.46V134.261C84.2043 134.944 84.322 135.523 84.5576 135.998C84.797 136.469 85.1287 136.828 85.5526 137.075C85.9765 137.319 86.4691 137.44 87.0304 137.44C87.3955 137.44 87.7252 137.389 88.0196 137.287C88.3179 137.181 88.575 137.024 88.7909 136.816C89.0068 136.604 89.1736 136.341 89.2913 136.027L90.6338 136.404C90.4924 136.859 90.255 137.26 89.9213 137.605C89.5877 137.947 89.1755 138.213 88.6849 138.406C88.1942 138.594 87.6428 138.688 87.0304 138.688ZM100.009 129.456L96.6643 138.5H95.2512L91.907 129.456H93.4143L95.9107 136.663H96.0049L98.5013 129.456H100.009ZM101.843 138.5V129.456H103.232V138.5H101.843ZM102.549 127.949C102.278 127.949 102.045 127.857 101.849 127.672C101.656 127.488 101.56 127.266 101.56 127.007C101.56 126.748 101.656 126.526 101.849 126.342C102.045 126.157 102.278 126.065 102.549 126.065C102.82 126.065 103.052 126.157 103.244 126.342C103.44 126.526 103.538 126.748 103.538 127.007C103.538 127.266 103.44 127.488 103.244 127.672C103.052 127.857 102.82 127.949 102.549 127.949ZM109.569 138.688C108.697 138.688 107.946 138.496 107.314 138.111C106.686 137.723 106.201 137.181 105.86 136.486C105.522 135.788 105.353 134.975 105.353 134.049C105.353 133.122 105.522 132.306 105.86 131.6C106.201 130.889 106.676 130.336 107.284 129.939C107.897 129.539 108.611 129.339 109.428 129.339C109.899 129.339 110.364 129.417 110.823 129.574C111.282 129.731 111.7 129.986 112.077 130.34C112.454 130.689 112.754 131.152 112.978 131.729C113.202 132.306 113.313 133.017 113.313 133.86V134.449H106.342V133.248H111.9C111.9 132.738 111.798 132.282 111.594 131.882C111.394 131.482 111.108 131.166 110.735 130.934C110.366 130.703 109.93 130.587 109.428 130.587C108.874 130.587 108.395 130.724 107.991 130.999C107.591 131.27 107.282 131.623 107.067 132.059C106.851 132.494 106.743 132.962 106.743 133.46V134.261C106.743 134.944 106.86 135.523 107.096 135.998C107.335 136.469 107.667 136.828 108.091 137.075C108.515 137.319 109.008 137.44 109.569 137.44C109.934 137.44 110.264 137.389 110.558 137.287C110.856 137.181 111.113 137.024 111.329 136.816C111.545 136.604 111.712 136.341 111.83 136.027L113.172 136.404C113.031 136.859 112.793 137.26 112.46 137.605C112.126 137.947 111.714 138.213 111.223 138.406C110.733 138.594 110.181 138.688 109.569 138.688ZM117.476 138.5L114.721 129.456H116.181L118.136 136.38H118.23L120.161 129.456H121.645L123.552 136.357H123.647L125.601 129.456H127.061L124.306 138.5H122.94L120.962 131.552H120.82L118.842 138.5H117.476ZM135.304 131.482L134.056 131.835C133.978 131.627 133.862 131.425 133.709 131.229C133.56 131.028 133.356 130.864 133.096 130.734C132.837 130.604 132.506 130.54 132.101 130.54C131.548 130.54 131.087 130.667 130.718 130.922C130.353 131.174 130.17 131.494 130.17 131.882C130.17 132.228 130.296 132.5 130.547 132.701C130.798 132.901 131.191 133.068 131.725 133.201L133.067 133.531C133.876 133.727 134.478 134.027 134.875 134.432C135.271 134.832 135.469 135.348 135.469 135.98C135.469 136.498 135.32 136.961 135.022 137.37C134.727 137.778 134.315 138.1 133.785 138.335C133.255 138.571 132.639 138.688 131.937 138.688C131.014 138.688 130.251 138.488 129.646 138.088C129.042 137.687 128.659 137.103 128.498 136.333L129.817 136.004C129.943 136.49 130.18 136.855 130.529 137.099C130.883 137.342 131.344 137.464 131.913 137.464C132.561 137.464 133.075 137.326 133.456 137.052C133.84 136.773 134.033 136.439 134.033 136.051C134.033 135.737 133.923 135.474 133.703 135.262C133.483 135.046 133.146 134.885 132.69 134.779L131.183 134.426C130.355 134.229 129.746 133.925 129.358 133.513C128.973 133.097 128.781 132.577 128.781 131.953C128.781 131.443 128.924 130.991 129.211 130.599C129.501 130.206 129.895 129.898 130.394 129.674C130.896 129.45 131.466 129.339 132.101 129.339C132.996 129.339 133.699 129.535 134.209 129.927C134.723 130.32 135.088 130.838 135.304 131.482Z" fill="white"></path><path d="M97.2691 35.4794C97.2691 33.9594 97.1391 32.5094 96.8991 31.1094H75.1191V39.7994H87.5891C87.0291 42.6494 85.3891 45.0594 82.9591 46.6994V52.4794H90.3991C94.7591 48.4494 97.2591 42.5194 97.2591 35.4794H97.2691Z" fill="#4285F4"></path><path d="M75.1302 58.0909C81.3702 58.0909 86.6002 56.0109 90.4102 52.4809L82.9702 46.7009C80.8902 48.0909 78.2502 48.9409 75.1302 48.9409C69.1002 48.9409 63.9902 44.8709 62.1602 39.3809H54.4902V45.3409C58.2902 52.8909 66.0902 58.1009 75.1302 58.1009V58.0909Z" fill="#34A853"></path><path d="M62.16 39.3698C61.68 37.9798 61.43 36.4998 61.43 34.9598C61.43 33.4198 61.7 31.9298 62.16 30.5498V24.5898H54.49C52.91 27.7098 52 31.2198 52 34.9598C52 38.6998 52.91 42.2098 54.49 45.3298L62.16 39.3698Z" fill="#FBBC05"></path><path d="M75.1302 20.9801C78.5402 20.9801 81.5902 22.1601 84.0002 24.4501L90.5902 17.8601C86.6002 14.1201 81.3802 11.8301 75.1302 11.8301C66.0902 11.8301 58.2902 17.0301 54.4902 24.5901L62.1602 30.5501C63.9902 25.0601 69.1002 20.9901 75.1302 20.9901V20.9801Z" fill="#EA4335"></path><path d="M42.7883 99.7675L41.8879 100.022C41.8313 99.8722 41.7477 99.7264 41.6373 99.5848C41.5297 99.4404 41.3825 99.3215 41.1956 99.2281C41.0087 99.1346 40.7695 99.0879 40.4778 99.0879C40.0786 99.0879 39.7459 99.1799 39.4798 99.364C39.2164 99.5452 39.0848 99.776 39.0848 100.056C39.0848 100.305 39.1754 100.502 39.3566 100.647C39.5378 100.791 39.8209 100.911 40.206 101.008L41.1744 101.245C41.7577 101.387 42.1923 101.604 42.4783 101.895C42.7642 102.184 42.9072 102.556 42.9072 103.012C42.9072 103.386 42.7996 103.72 42.5844 104.015C42.3721 104.309 42.0748 104.541 41.6925 104.711C41.3103 104.881 40.8657 104.966 40.3589 104.966C39.6935 104.966 39.1428 104.822 38.7068 104.533C38.2707 104.244 37.9947 103.822 37.8786 103.267L38.8299 103.029C38.9205 103.38 39.0919 103.644 39.3438 103.819C39.5987 103.995 39.9314 104.083 40.3419 104.083C40.8091 104.083 41.18 103.983 41.4547 103.785C41.7322 103.584 41.8709 103.344 41.8709 103.063C41.8709 102.837 41.7916 102.647 41.6331 102.494C41.4745 102.338 41.231 102.222 40.9026 102.146L39.8153 101.891C39.2179 101.749 38.779 101.53 38.4987 101.233C38.2212 100.933 38.0824 100.557 38.0824 100.107C38.0824 99.7391 38.1858 99.4135 38.3925 99.1304C38.602 98.8472 38.8866 98.625 39.2462 98.4636C39.6086 98.3022 40.0191 98.2215 40.4778 98.2215C41.1234 98.2215 41.6302 98.3631 41.9983 98.6462C42.3692 98.9294 42.6326 99.3031 42.7883 99.7675ZM47.2531 98.3064V99.1559H43.8724V98.3064H47.2531ZM44.8577 96.7435H45.8601V102.961C45.8601 103.244 45.9011 103.457 45.9832 103.598C46.0682 103.737 46.1758 103.831 46.306 103.879C46.4391 103.924 46.5792 103.947 46.7265 103.947C46.8369 103.947 46.9275 103.941 46.9983 103.93C47.0691 103.916 47.1257 103.904 47.1682 103.896L47.372 104.796C47.3041 104.822 47.2092 104.847 47.0875 104.873C46.9657 104.901 46.8114 104.915 46.6245 104.915C46.3414 104.915 46.0639 104.854 45.7921 104.732C45.5231 104.611 45.2994 104.425 45.121 104.176C44.9455 103.927 44.8577 103.613 44.8577 103.233V96.7435ZM50.6806 104.983C50.2672 104.983 49.892 104.905 49.5551 104.749C49.2181 104.591 48.9506 104.363 48.7524 104.066C48.5542 103.765 48.4551 103.403 48.4551 102.978C48.4551 102.605 48.5287 102.302 48.6759 102.069C48.8232 101.834 49.0199 101.65 49.2663 101.517C49.5126 101.384 49.7844 101.285 50.0817 101.22C50.3819 101.152 50.6834 101.098 50.9864 101.059C51.3828 101.008 51.7041 100.969 51.9505 100.944C52.1996 100.916 52.3809 100.869 52.4941 100.804C52.6102 100.739 52.6683 100.625 52.6683 100.464V100.43C52.6683 100.011 52.5536 99.6854 52.3242 99.4532C52.0977 99.221 51.7537 99.1049 51.2922 99.1049C50.8137 99.1049 50.4385 99.2097 50.1667 99.4192C49.8949 99.6287 49.7037 99.8524 49.5933 100.09L48.6419 99.7505C48.8118 99.3541 49.0383 99.0454 49.3215 98.8246C49.6075 98.6009 49.9189 98.4452 50.2559 98.3574C50.5956 98.2668 50.9297 98.2215 51.2582 98.2215C51.4677 98.2215 51.7084 98.247 51.9802 98.2979C52.2549 98.3461 52.5196 98.4466 52.7744 98.5995C53.0321 98.7524 53.2459 98.9832 53.4158 99.2918C53.5856 99.6004 53.6706 100.014 53.6706 100.532V104.83H52.6683V103.947H52.6173C52.5493 104.088 52.4361 104.24 52.2775 104.401C52.119 104.563 51.908 104.7 51.6447 104.813C51.3814 104.926 51.06 104.983 50.6806 104.983ZM50.8335 104.083C51.2299 104.083 51.564 104.005 51.8358 103.849C52.1105 103.693 52.3172 103.492 52.4559 103.246C52.5975 103 52.6683 102.74 52.6683 102.469V101.551C52.6258 101.602 52.5323 101.649 52.3879 101.691C52.2464 101.731 52.0821 101.766 51.8953 101.798C51.7112 101.826 51.5314 101.851 51.3559 101.874C51.1832 101.894 51.043 101.911 50.9354 101.925C50.6749 101.959 50.4314 102.014 50.2049 102.091C49.9812 102.164 49.8 102.276 49.6613 102.426C49.5254 102.573 49.4574 102.774 49.4574 103.029C49.4574 103.378 49.5862 103.641 49.8439 103.819C50.1044 103.995 50.4342 104.083 50.8335 104.083ZM55.5 104.83V98.3064H56.4684V99.2918H56.5364C56.6553 98.969 56.8705 98.7071 57.1819 98.5061C57.4934 98.305 57.8445 98.2045 58.2352 98.2045C58.3088 98.2045 58.4009 98.2059 58.5113 98.2088C58.6217 98.2116 58.7052 98.2158 58.7619 98.2215V99.2408C58.7279 99.2323 58.65 99.2196 58.5283 99.2026C58.4093 99.1828 58.2833 99.1729 58.1503 99.1729C57.8331 99.1729 57.55 99.2394 57.3008 99.3725C57.0545 99.5027 56.8591 99.6839 56.7147 99.9161C56.5732 100.145 56.5024 100.407 56.5024 100.702V104.83H55.5ZM64.5709 99.7675L63.6705 100.022C63.6139 99.8722 63.5304 99.7264 63.4199 99.5848C63.3123 99.4404 63.1651 99.3215 62.9782 99.2281C62.7914 99.1346 62.5521 99.0879 62.2605 99.0879C61.8612 99.0879 61.5285 99.1799 61.2624 99.364C60.9991 99.5452 60.8674 99.776 60.8674 100.056C60.8674 100.305 60.958 100.502 61.1392 100.647C61.3204 100.791 61.6036 100.911 61.9886 101.008L62.957 101.245C63.5403 101.387 63.9749 101.604 64.2609 101.895C64.5468 102.184 64.6898 102.556 64.6898 103.012C64.6898 103.386 64.5822 103.72 64.367 104.015C64.1547 104.309 63.8574 104.541 63.4751 104.711C63.0929 104.881 62.6484 104.966 62.1415 104.966C61.4761 104.966 60.9254 104.822 60.4894 104.533C60.0534 104.244 59.7773 103.822 59.6612 103.267L60.6126 103.029C60.7032 103.38 60.8745 103.644 61.1265 103.819C61.3813 103.995 61.714 104.083 62.1245 104.083C62.5917 104.083 62.9627 103.983 63.2373 103.785C63.5148 103.584 63.6535 103.344 63.6535 103.063C63.6535 102.837 63.5742 102.647 63.4157 102.494C63.2571 102.338 63.0136 102.222 62.6852 102.146L61.5979 101.891C61.0005 101.749 60.5616 101.53 60.2813 101.233C60.0038 100.933 59.8651 100.557 59.8651 100.107C59.8651 99.7391 59.9684 99.4135 60.1751 99.1304C60.3846 98.8472 60.6692 98.625 61.0288 98.4636C61.3912 98.3022 61.8018 98.2215 62.2605 98.2215C62.906 98.2215 63.4129 98.3631 63.7809 98.6462C64.1519 98.9294 64.4152 99.3031 64.5709 99.7675ZM67.6936 103.641L67.6257 104.1C67.5775 104.422 67.5039 104.768 67.4048 105.136C67.3086 105.504 67.208 105.851 67.1033 106.176C66.9985 106.502 66.9122 106.761 66.8442 106.954H66.0797C66.1165 106.772 66.1647 106.533 66.2241 106.236C66.2836 105.939 66.343 105.606 66.4025 105.238C66.4648 104.873 66.5158 104.499 66.5554 104.117L66.6064 103.641H67.6936ZM75.9554 96.1319V104.83H74.9021V97.2362H74.8512L72.7276 98.6462V97.5759L74.9021 96.1319H75.9554ZM81.2431 104.949C80.6599 104.949 80.1445 104.846 79.6972 104.639C79.2526 104.429 78.9058 104.142 78.6566 103.777C78.4075 103.409 78.2843 102.99 78.2871 102.52C78.2843 102.152 78.3565 101.812 78.5037 101.5C78.651 101.186 78.852 100.924 79.1068 100.715C79.3645 100.502 79.6519 100.368 79.969 100.311V100.26C79.5528 100.153 79.2215 99.9189 78.9752 99.5594C78.7288 99.1969 78.6071 98.785 78.6099 98.3234C78.6071 97.8817 78.7189 97.4867 78.9454 97.1385C79.1719 96.7902 79.4834 96.5156 79.8798 96.3145C80.279 96.1135 80.7335 96.013 81.2431 96.013C81.7471 96.013 82.1973 96.1135 82.5937 96.3145C82.9901 96.5156 83.3016 96.7902 83.5281 97.1385C83.7575 97.4867 83.8735 97.8817 83.8764 98.3234C83.8735 98.785 83.7475 99.1969 83.4984 99.5594C83.252 99.9189 82.925 100.153 82.5173 100.26V100.311C82.8316 100.368 83.1147 100.502 83.3667 100.715C83.6187 100.924 83.8197 101.186 83.9698 101.5C84.1199 101.812 84.1963 102.152 84.1992 102.52C84.1963 102.99 84.0689 103.409 83.8169 103.777C83.5677 104.142 83.2209 104.429 82.7764 104.639C82.3347 104.846 81.8236 104.949 81.2431 104.949ZM81.2431 104.015C81.6367 104.015 81.9765 103.951 82.2625 103.824C82.5484 103.696 82.7693 103.516 82.925 103.284C83.0807 103.052 83.16 102.78 83.1629 102.469C83.16 102.14 83.0751 101.85 82.908 101.598C82.741 101.346 82.513 101.148 82.2242 101.003C81.9383 100.859 81.6112 100.787 81.2431 100.787C80.8722 100.787 80.5409 100.859 80.2493 101.003C79.9605 101.148 79.7326 101.346 79.5655 101.598C79.4013 101.85 79.3206 102.14 79.3234 102.469C79.3206 102.78 79.3956 103.052 79.5485 103.284C79.7042 103.516 79.9265 103.696 80.2153 103.824C80.5041 103.951 80.8467 104.015 81.2431 104.015ZM81.2431 99.8864C81.5546 99.8864 81.8307 99.8241 82.0713 99.6995C82.3148 99.5749 82.506 99.4008 82.6447 99.1771C82.7834 98.9534 82.8542 98.6915 82.8571 98.3914C82.8542 98.0969 82.7849 97.8407 82.6489 97.6226C82.513 97.4018 82.3247 97.2319 82.0841 97.113C81.8434 96.9912 81.5631 96.9304 81.2431 96.9304C80.9175 96.9304 80.633 96.9912 80.3895 97.113C80.146 97.2319 79.9577 97.4018 79.8246 97.6226C79.6915 97.8407 79.6264 98.0969 79.6292 98.3914C79.6264 98.6915 79.6929 98.9534 79.8288 99.1771C79.9676 99.4008 80.1587 99.5749 80.4022 99.6995C80.6457 99.8241 80.926 99.8864 81.2431 99.8864ZM88.664 104.949C88.0241 104.949 87.479 104.775 87.0288 104.427C86.5786 104.075 86.2346 103.567 85.9968 102.902C85.7589 102.234 85.64 101.427 85.64 100.481C85.64 99.5409 85.7589 98.7382 85.9968 98.0728C86.2374 97.4046 86.5829 96.895 87.0331 96.5439C87.4861 96.1899 88.0297 96.013 88.664 96.013C89.2982 96.013 89.8404 96.1899 90.2906 96.5439C90.7437 96.895 91.0891 97.4046 91.327 98.0728C91.5676 98.7382 91.688 99.5409 91.688 100.481C91.688 101.427 91.569 102.234 91.3312 102.902C91.0934 103.567 90.7493 104.075 90.2991 104.427C89.8489 104.775 89.3039 104.949 88.664 104.949ZM88.664 104.015C89.2982 104.015 89.7909 103.709 90.142 103.097C90.4931 102.486 90.6686 101.614 90.6686 100.481C90.6686 99.7278 90.5879 99.0865 90.4266 98.557C90.268 98.0275 90.0386 97.6241 89.7385 97.3466C89.4412 97.0691 89.083 96.9304 88.664 96.9304C88.0354 96.9304 87.5441 97.2404 87.1902 97.8605C86.8363 98.4777 86.6593 99.3512 86.6593 100.481C86.6593 101.234 86.7386 101.874 86.8972 102.401C87.0557 102.927 87.2837 103.328 87.581 103.603C87.8811 103.877 88.2421 104.015 88.664 104.015ZM96.6826 104.83V98.3064H97.651V99.2918H97.7189C97.8378 98.969 98.053 98.7071 98.3645 98.5061C98.676 98.305 99.0271 98.2045 99.4178 98.2045C99.4914 98.2045 99.5834 98.2059 99.6939 98.2088C99.8043 98.2116 99.8878 98.2158 99.9444 98.2215V99.2408C99.9105 99.2323 99.8326 99.2196 99.7108 99.2026C99.5919 99.1828 99.4659 99.1729 99.3328 99.1729C99.0157 99.1729 98.7326 99.2394 98.4834 99.3725C98.2371 99.5027 98.0417 99.6839 97.8973 99.9161C97.7557 100.145 97.685 100.407 97.685 100.702V104.83H96.6826ZM103.669 104.966C103.041 104.966 102.498 104.827 102.043 104.55C101.59 104.269 101.24 103.879 100.993 103.378C100.75 102.874 100.628 102.287 100.628 101.619C100.628 100.951 100.75 100.362 100.993 99.8524C101.24 99.3399 101.582 98.9407 102.021 98.6547C102.463 98.3659 102.978 98.2215 103.567 98.2215C103.907 98.2215 104.243 98.2781 104.574 98.3914C104.905 98.5046 105.207 98.6887 105.478 98.9435C105.75 99.1955 105.967 99.5296 106.128 99.9458C106.29 100.362 106.37 100.875 106.37 101.483V101.908H101.342V101.042H105.351C105.351 100.674 105.277 100.345 105.13 100.056C104.986 99.7675 104.779 99.5395 104.51 99.3725C104.244 99.2054 103.93 99.1219 103.567 99.1219C103.168 99.1219 102.823 99.221 102.531 99.4192C102.242 99.6146 102.02 99.8694 101.864 100.184C101.708 100.498 101.631 100.835 101.631 101.195V101.772C101.631 102.265 101.716 102.682 101.885 103.025C102.058 103.365 102.297 103.624 102.603 103.802C102.909 103.978 103.264 104.066 103.669 104.066C103.933 104.066 104.17 104.029 104.383 103.955C104.598 103.879 104.783 103.765 104.939 103.615C105.095 103.462 105.215 103.273 105.3 103.046L106.268 103.318C106.167 103.647 105.995 103.935 105.755 104.185C105.514 104.431 105.217 104.623 104.863 104.762C104.509 104.898 104.111 104.966 103.669 104.966ZM113.031 98.3064L110.619 104.83H109.599L107.187 98.3064H108.274L110.075 103.505H110.143L111.944 98.3064H113.031ZM114.354 104.83V98.3064H115.356V104.83H114.354ZM114.864 97.2192C114.668 97.2192 114.5 97.1526 114.358 97.0196C114.219 96.8865 114.15 96.7265 114.15 96.5396C114.15 96.3527 114.219 96.1928 114.358 96.0597C114.5 95.9266 114.668 95.8601 114.864 95.8601C115.059 95.8601 115.226 95.9266 115.365 96.0597C115.506 96.1928 115.577 96.3527 115.577 96.5396C115.577 96.7265 115.506 96.8865 115.365 97.0196C115.226 97.1526 115.059 97.2192 114.864 97.2192ZM119.927 104.966C119.299 104.966 118.757 104.827 118.301 104.55C117.848 104.269 117.498 103.879 117.252 103.378C117.008 102.874 116.886 102.287 116.886 101.619C116.886 100.951 117.008 100.362 117.252 99.8524C117.498 99.3399 117.841 98.9407 118.279 98.6547C118.721 98.3659 119.236 98.2215 119.825 98.2215C120.165 98.2215 120.501 98.2781 120.832 98.3914C121.163 98.5046 121.465 98.6887 121.737 98.9435C122.008 99.1955 122.225 99.5296 122.386 99.9458C122.548 100.362 122.629 100.875 122.629 101.483V101.908H117.6V101.042H121.609C121.609 100.674 121.536 100.345 121.388 100.056C121.244 99.7675 121.037 99.5395 120.768 99.3725C120.502 99.2054 120.188 99.1219 119.825 99.1219C119.426 99.1219 119.081 99.221 118.789 99.4192C118.5 99.6146 118.278 99.8694 118.122 100.184C117.967 100.498 117.889 100.835 117.889 101.195V101.772C117.889 102.265 117.974 102.682 118.144 103.025C118.316 103.365 118.555 103.624 118.861 103.802C119.167 103.978 119.522 104.066 119.927 104.066C120.191 104.066 120.428 104.029 120.641 103.955C120.856 103.879 121.041 103.765 121.197 103.615C121.353 103.462 121.473 103.273 121.558 103.046L122.527 103.318C122.425 103.647 122.253 103.935 122.013 104.185C121.772 104.431 121.475 104.623 121.121 104.762C120.767 104.898 120.369 104.966 119.927 104.966ZM125.631 104.83L123.644 98.3064H124.697L126.107 103.301H126.175L127.568 98.3064H128.638L130.014 103.284H130.082L131.492 98.3064H132.546L130.558 104.83H129.573L128.146 99.8184H128.044L126.617 104.83H125.631ZM138.492 99.7675L137.591 100.022C137.535 99.8722 137.451 99.7264 137.341 99.5848C137.233 99.4404 137.086 99.3215 136.899 99.2281C136.712 99.1346 136.473 99.0879 136.181 99.0879C135.782 99.0879 135.449 99.1799 135.183 99.364C134.92 99.5452 134.788 99.776 134.788 100.056C134.788 100.305 134.879 100.502 135.06 100.647C135.241 100.791 135.524 100.911 135.909 101.008L136.878 101.245C137.461 101.387 137.896 101.604 138.182 101.895C138.468 102.184 138.611 102.556 138.611 103.012C138.611 103.386 138.503 103.72 138.288 104.015C138.075 104.309 137.778 104.541 137.396 104.711C137.014 104.881 136.569 104.966 136.062 104.966C135.397 104.966 134.846 104.822 134.41 104.533C133.974 104.244 133.698 103.822 133.582 103.267L134.533 103.029C134.624 103.38 134.795 103.644 135.047 103.819C135.302 103.995 135.635 104.083 136.045 104.083C136.512 104.083 136.883 103.983 137.158 103.785C137.436 103.584 137.574 103.344 137.574 103.063C137.574 102.837 137.495 102.647 137.336 102.494C137.178 102.338 136.934 102.222 136.606 102.146L135.519 101.891C134.921 101.749 134.482 101.53 134.202 101.233C133.925 100.933 133.786 100.557 133.786 100.107C133.786 99.7391 133.889 99.4135 134.096 99.1304C134.305 98.8472 134.59 98.625 134.95 98.4636C135.312 98.3022 135.723 98.2215 136.181 98.2215C136.827 98.2215 137.334 98.3631 137.702 98.6462C138.073 98.9294 138.336 99.3031 138.492 99.7675Z" fill="#5F6368"></path><path d="M11.0343 102.492V101.205L16.7105 92.2243H17.6439V94.2172H17.0132L12.7245 101.003V101.104H20.3684V102.492H11.0343ZM17.1141 105.141V102.101V101.502V92.2243H18.6025V105.141H17.1141ZM23.2349 105.242C22.9237 105.242 22.6567 105.13 22.4339 104.907C22.2111 104.684 22.0996 104.417 22.0996 104.106C22.0996 103.795 22.2111 103.528 22.4339 103.305C22.6567 103.082 22.9237 102.971 23.2349 102.971C23.546 102.971 23.813 103.082 24.0358 103.305C24.2587 103.528 24.3701 103.795 24.3701 104.106C24.3701 104.312 24.3175 104.502 24.2124 104.674C24.1115 104.846 23.9749 104.985 23.8025 105.09C23.6343 105.191 23.4451 105.242 23.2349 105.242ZM27.1593 105.141L32.9363 93.7127V93.6118H26.2763V92.2243H34.5509V93.6874L28.799 105.141H27.1593Z" fill="#5F6368"></path><path d="M29.8292 67.1406L32.6592 72.8506L38.9592 73.7706L34.3992 78.2206L35.4792 84.5006L29.8292 81.5406L24.1892 84.5006L25.2692 78.2206L20.6992 73.7706L27.0092 72.8506L29.8292 67.1406Z" fill="#FBBC04"></path><path d="M52.1183 67.1406L54.9383 72.8506L61.2483 73.7706L56.6883 78.2206L57.7583 84.5006L52.1183 81.5406L46.4783 84.5006L47.5583 78.2206L42.9883 73.7706L49.2983 72.8506L52.1183 67.1406Z" fill="#FBBC04"></path><path d="M74.4093 67.1406L77.2293 72.8506L83.5393 73.7706L78.9693 78.2206L80.0493 84.5006L74.4093 81.5406L68.7593 84.5006L69.8393 78.2206L65.2793 73.7706L71.5893 72.8506L74.4093 67.1406Z" fill="#FBBC04"></path><path d="M96.6886 67.1406L99.5086 72.8506L105.819 73.7706L101.259 78.2206L102.339 84.5006L96.6886 81.5406L91.0486 84.5006L92.1286 78.2206L87.5586 73.7706L93.8686 72.8506L96.6886 67.1406Z" fill="#FBBC04"></path><path d="M118.98 67.1406L121.8 72.8506L128.11 73.7706L123.55 78.2206L124.62 84.5006L118.98 81.5406L113.34 84.5006L114.41 78.2206L109.85 73.7706L116.16 72.8506L118.98 67.1406Z" fill="#B3BCC6"></path><path d="M118.98 67.1406L116.16 72.8506L109.85 73.7706L114.41 78.2206L113.34 84.5006L118.98 81.5406L121.27 82.7406V71.7806L118.98 67.1406Z" fill="#FBBC04"></path></g><defs><clipPath id="clip0_2895_14769"><rect width="148.81" height="148.81" fill="white"></rect></clipPath></defs></svg> 